<svg width="89" height="37" viewBox="0 0 89 37" fill="none" xmlns="http://www.w3.org/2000/svg">
<g filter="url(#filter0_d_149_6200)">
<rect x="1" width="87" height="35" rx="17.5" fill="white"/>
<rect x="1.5" y="0.5" width="86" height="34" rx="17" stroke="#DBDBDB"/>
</g>
<path d="M42.2918 23H40.3118V12.29H46.0868V13.895H42.2918V17.045H45.8318V18.65H42.2918V23Z" fill="#797979"/>
<path d="M54.6804 18.92C54.6804 19.6 54.5954 20.2 54.4254 20.72C54.2554 21.24 54.0054 21.685 53.6754 22.055C53.3554 22.415 52.9654 22.69 52.5054 22.88C52.0454 23.06 51.5304 23.15 50.9604 23.15C50.4304 23.15 49.9354 23.06 49.4754 22.88C49.0254 22.69 48.6354 22.415 48.3054 22.055C47.9854 21.685 47.7354 21.24 47.5554 20.72C47.3754 20.2 47.2854 19.6 47.2854 18.92C47.2854 18.02 47.4304 17.26 47.7204 16.64C48.0204 16.01 48.4504 15.535 49.0104 15.215C49.5704 14.885 50.2354 14.72 51.0054 14.72C51.7254 14.72 52.3604 14.885 52.9104 15.215C53.4604 15.535 53.8904 16.01 54.2004 16.64C54.5204 17.26 54.6804 18.02 54.6804 18.92ZM49.3104 18.92C49.3104 19.49 49.3704 19.98 49.4904 20.39C49.6104 20.79 49.7904 21.095 50.0304 21.305C50.2804 21.515 50.6004 21.62 50.9904 21.62C51.3804 21.62 51.6954 21.515 51.9354 21.305C52.1854 21.095 52.3654 20.79 52.4754 20.39C52.5954 19.98 52.6554 19.49 52.6554 18.92C52.6554 18.34 52.5954 17.855 52.4754 17.465C52.3554 17.065 52.1704 16.765 51.9204 16.565C51.6804 16.355 51.3654 16.25 50.9754 16.25C50.3854 16.25 49.9604 16.48 49.7004 16.94C49.4404 17.4 49.3104 18.06 49.3104 18.92Z" fill="#797979"/>
<path d="M63.4108 18.92C63.4108 19.6 63.3258 20.2 63.1558 20.72C62.9858 21.24 62.7358 21.685 62.4058 22.055C62.0858 22.415 61.6958 22.69 61.2358 22.88C60.7758 23.06 60.2608 23.15 59.6908 23.15C59.1608 23.15 58.6658 23.06 58.2058 22.88C57.7558 22.69 57.3658 22.415 57.0358 22.055C56.7158 21.685 56.4658 21.24 56.2858 20.72C56.1058 20.2 56.0158 19.6 56.0158 18.92C56.0158 18.02 56.1608 17.26 56.4508 16.64C56.7508 16.01 57.1808 15.535 57.7408 15.215C58.3008 14.885 58.9658 14.72 59.7358 14.72C60.4558 14.72 61.0908 14.885 61.6408 15.215C62.1908 15.535 62.6208 16.01 62.9308 16.64C63.2508 17.26 63.4108 18.02 63.4108 18.92ZM58.0408 18.92C58.0408 19.49 58.1008 19.98 58.2208 20.39C58.3408 20.79 58.5208 21.095 58.7608 21.305C59.0108 21.515 59.3308 21.62 59.7208 21.62C60.1108 21.62 60.4258 21.515 60.6658 21.305C60.9158 21.095 61.0958 20.79 61.2058 20.39C61.3258 19.98 61.3858 19.49 61.3858 18.92C61.3858 18.34 61.3258 17.855 61.2058 17.465C61.0858 17.065 60.9008 16.765 60.6508 16.565C60.4108 16.355 60.0958 16.25 59.7058 16.25C59.1158 16.25 58.6908 16.48 58.4308 16.94C58.1708 17.4 58.0408 18.06 58.0408 18.92Z" fill="#797979"/>
<path d="M67.6713 23.15C66.8013 23.15 66.0963 22.8 65.5563 22.1C65.0163 21.39 64.7463 20.34 64.7463 18.95C64.7463 17.56 65.0213 16.51 65.5713 15.8C66.1213 15.08 66.8413 14.72 67.7313 14.72C68.1013 14.72 68.4213 14.775 68.6913 14.885C68.9713 14.985 69.2113 15.125 69.4113 15.305C69.6113 15.485 69.7863 15.685 69.9363 15.905H69.9963C69.9763 15.765 69.9513 15.55 69.9213 15.26C69.8913 14.97 69.8763 14.7 69.8763 14.45V11.6H71.8713V23H70.3413L69.9663 21.935H69.8763C69.7463 22.155 69.5813 22.36 69.3813 22.55C69.1813 22.73 68.9413 22.875 68.6613 22.985C68.3813 23.095 68.0513 23.15 67.6713 23.15ZM68.3313 21.62C68.9413 21.62 69.3713 21.42 69.6213 21.02C69.8713 20.62 69.9963 20.015 69.9963 19.205V18.965C69.9963 18.085 69.8763 17.415 69.6363 16.955C69.3963 16.495 68.9563 16.265 68.3163 16.265C67.8163 16.265 67.4313 16.505 67.1613 16.985C66.9013 17.455 66.7713 18.12 66.7713 18.98C66.7713 19.84 66.9063 20.495 67.1763 20.945C67.4463 21.395 67.8313 21.62 68.3313 21.62Z" fill="#797979"/>
<g clip-path="url(#clip0_149_6200)">
<path d="M27.05 26.1666H28.4333C29.1333 26.1666 29.7083 25.625 29.7917 24.9416L31.1667 11.2083H27V7.83331H25.3583V11.2083H21.2167L21.4667 13.1583C22.8917 13.55 24.225 14.2583 25.025 15.0416C26.225 16.225 27.05 17.45 27.05 19.45V26.1666ZM12.8333 25.3333V24.5H25.3583V25.3333C25.3583 25.7833 24.9833 26.1666 24.5 26.1666H13.6667C13.2083 26.1666 12.8333 25.7833 12.8333 25.3333ZM25.3583 19.5C25.3583 12.8333 12.8333 12.8333 12.8333 19.5H25.3583ZM12.8333 21.1666H25.3333V22.8333H12.8333V21.1666Z" fill="#777777"/>
</g>
<defs>
<filter id="filter0_d_149_6200" x="0" y="0" width="89" height="37" filterUnits="userSpaceOnUse" color-interpolation-filters="sRGB">
<feFlood flood-opacity="0" result="BackgroundImageFix"/>
<feColorMatrix in="SourceAlpha" type="matrix" values="0 0 0 0 0 0 0 0 0 0 0 0 0 0 0 0 0 0 127 0" result="hardAlpha"/>
<feOffset dy="1"/>
<feGaussianBlur stdDeviation="0.5"/>
<feComposite in2="hardAlpha" operator="out"/>
<feColorMatrix type="matrix" values="0 0 0 0 0 0 0 0 0 0 0 0 0 0 0 0 0 0 0.25 0"/>
<feBlend mode="normal" in2="BackgroundImageFix" result="effect1_dropShadow_149_6200"/>
<feBlend mode="normal" in="SourceGraphic" in2="effect1_dropShadow_149_6200" result="shape"/>
</filter>
<clipPath id="clip0_149_6200">
<rect width="20" height="20" fill="white" transform="translate(12 7)"/>
</clipPath>
</defs>
</svg>
