<svg width="21" height="24" viewBox="0 0 21 24" fill="none" xmlns="http://www.w3.org/2000/svg">
<path d="M2.4 10.4V9.6H1.6V10.4H2.4ZM8.8 10.4V9.6H8V10.4H8.8ZM8.8 16.8H8V17.6H8.8V16.8ZM20 5.6H20.8V5.2688L20.5664 5.0336L20 5.6ZM15.2 0.8L15.7664 0.2336L15.5312 0H15.2V0.8ZM2.4 11.2H4V9.6H2.4V11.2ZM3.2 17.6V13.6H1.6V17.6H3.2ZM3.2 13.6V10.4H1.6V13.6H3.2ZM4 12.8H2.4V14.4H4V12.8ZM4.8 12C4.8 12.2122 4.71571 12.4157 4.56569 12.5657C4.41566 12.7157 4.21217 12.8 4 12.8V14.4C4.63652 14.4 5.24697 14.1471 5.69706 13.6971C6.14714 13.247 6.4 12.6365 6.4 12H4.8ZM4 11.2C4.21217 11.2 4.41566 11.2843 4.56569 11.4343C4.71571 11.5843 4.8 11.7878 4.8 12H6.4C6.4 11.3635 6.14714 10.753 5.69706 10.3029C5.24697 9.85286 4.63652 9.6 4 9.6V11.2ZM8 10.4V16.8H9.6V10.4H8ZM8.8 17.6H10.4V16H8.8V17.6ZM12.8 15.2V12H11.2V15.2H12.8ZM10.4 9.6H8.8V11.2H10.4V9.6ZM12.8 12C12.8 11.3635 12.5471 10.753 12.0971 10.3029C11.647 9.85286 11.0365 9.6 10.4 9.6V11.2C10.6122 11.2 10.8157 11.2843 10.9657 11.4343C11.1157 11.5843 11.2 11.7878 11.2 12H12.8ZM10.4 17.6C11.0365 17.6 11.647 17.3471 12.0971 16.8971C12.5471 16.447 12.8 15.8365 12.8 15.2H11.2C11.2 15.4122 11.1157 15.6157 10.9657 15.7657C10.8157 15.9157 10.6122 16 10.4 16V17.6ZM14.4 9.6V17.6H16V9.6H14.4ZM15.2 11.2H19.2V9.6H15.2V11.2ZM15.2 14.4H17.6V12.8H15.2V14.4ZM1.6 8V2.4H0V8H1.6ZM19.2 5.6V8H20.8V5.6H19.2ZM2.4 1.6H15.2V0H2.4V1.6ZM14.6336 1.3664L19.4336 6.1664L20.5664 5.0336L15.7664 0.2336L14.6336 1.3664ZM1.6 2.4C1.6 2.18783 1.68429 1.98434 1.83431 1.83431C1.98434 1.68429 2.18783 1.6 2.4 1.6V0C1.76348 0 1.15303 0.252856 0.702944 0.702944C0.252857 1.15303 0 1.76348 0 2.4H1.6ZM0 19.2V21.6H1.6V19.2H0ZM2.4 24H18.4V22.4H2.4V24ZM20.8 21.6V19.2H19.2V21.6H20.8ZM18.4 24C19.0365 24 19.647 23.7471 20.0971 23.2971C20.5471 22.847 20.8 22.2365 20.8 21.6H19.2C19.2 21.8122 19.1157 22.0157 18.9657 22.1657C18.8157 22.3157 18.6122 22.4 18.4 22.4V24ZM0 21.6C0 22.2365 0.252857 22.847 0.702944 23.2971C1.15303 23.7471 1.76348 24 2.4 24V22.4C2.18783 22.4 1.98434 22.3157 1.83431 22.1657C1.68429 22.0157 1.6 21.8122 1.6 21.6H0Z" fill="#777777"/>
</svg>
