<svg width="338" height="33" viewBox="0 0 338 33" fill="none" xmlns="http://www.w3.org/2000/svg">
<path d="M0 10C0 4.47715 4.47715 0 10 0H328C333.523 0 338 4.47715 338 10V23C338 28.5228 333.523 33 328 33H9.99999C4.47715 33 0 28.5228 0 23V10Z" fill="white"/>
<path d="M313.5 7C315.224 7 316.877 7.68482 318.096 8.90381C319.315 10.1228 320 11.7761 320 13.5C320 15.11 319.41 16.59 318.44 17.73L318.71 18H319.5L324.5 23L323 24.5L318 19.5V18.71L317.73 18.44C316.55 19.4465 315.051 19.9996 313.5 20C311.776 20 310.123 19.3152 308.904 18.0962C307.685 16.8772 307 15.2239 307 13.5C307 11.7761 307.685 10.1228 308.904 8.90381C310.123 7.68482 311.776 7 313.5 7ZM313.5 9C311 9 309 11 309 13.5C309 16 311 18 313.5 18C316 18 318 16 318 13.5C318 11 316 9 313.5 9Z" fill="#777777"/>
<path d="M26.024 18.708C26.024 19.22 25.9 19.656 25.652 20.016C25.404 20.368 25.048 20.64 24.584 20.832C24.128 21.024 23.588 21.12 22.964 21.12C22.644 21.12 22.336 21.104 22.04 21.072C21.752 21.04 21.488 20.996 21.248 20.94C21.008 20.876 20.796 20.8 20.612 20.712V19.68C20.9 19.808 21.256 19.924 21.68 20.028C22.112 20.132 22.556 20.184 23.012 20.184C23.436 20.184 23.792 20.128 24.08 20.016C24.368 19.904 24.584 19.744 24.728 19.536C24.872 19.328 24.944 19.084 24.944 18.804C24.944 18.524 24.884 18.288 24.764 18.096C24.644 17.904 24.436 17.728 24.14 17.568C23.852 17.4 23.448 17.224 22.928 17.04C22.56 16.904 22.236 16.76 21.956 16.608C21.684 16.448 21.456 16.268 21.272 16.068C21.088 15.868 20.948 15.64 20.852 15.384C20.764 15.128 20.72 14.832 20.72 14.496C20.72 14.04 20.836 13.652 21.068 13.332C21.3 13.004 21.62 12.752 22.028 12.576C22.444 12.4 22.92 12.312 23.456 12.312C23.928 12.312 24.36 12.356 24.752 12.444C25.144 12.532 25.5 12.648 25.82 12.792L25.484 13.716C25.188 13.588 24.864 13.48 24.512 13.392C24.168 13.304 23.808 13.26 23.432 13.26C23.072 13.26 22.772 13.312 22.532 13.416C22.292 13.52 22.112 13.668 21.992 13.86C21.872 14.044 21.812 14.26 21.812 14.508C21.812 14.796 21.872 15.036 21.992 15.228C22.112 15.42 22.308 15.592 22.58 15.744C22.852 15.896 23.22 16.06 23.684 16.236C24.188 16.42 24.612 16.62 24.956 16.836C25.308 17.044 25.572 17.296 25.748 17.592C25.932 17.888 26.024 18.26 26.024 18.708Z" fill="#A5A5A5"/>
<path d="M30.0899 14.448C30.6419 14.448 31.1139 14.568 31.5059 14.808C31.9059 15.048 32.2099 15.388 32.4179 15.828C32.6339 16.26 32.7419 16.768 32.7419 17.352V17.988H28.3379C28.3539 18.716 28.5379 19.272 28.8899 19.656C29.2499 20.032 29.7499 20.22 30.3899 20.22C30.7979 20.22 31.1579 20.184 31.4699 20.112C31.7899 20.032 32.1179 19.92 32.4539 19.776V20.7C32.1259 20.844 31.8019 20.948 31.4819 21.012C31.1619 21.084 30.7819 21.12 30.3419 21.12C29.7339 21.12 29.1939 20.996 28.7219 20.748C28.2579 20.5 27.8939 20.132 27.6299 19.644C27.3739 19.148 27.2459 18.544 27.2459 17.832C27.2459 17.128 27.3619 16.524 27.5939 16.02C27.8339 15.516 28.1659 15.128 28.5899 14.856C29.0219 14.584 29.5219 14.448 30.0899 14.448ZM30.0779 15.312C29.5739 15.312 29.1739 15.476 28.8779 15.804C28.5899 16.124 28.4179 16.572 28.3619 17.148H31.6379C31.6379 16.78 31.5819 16.46 31.4699 16.188C31.3579 15.916 31.1859 15.704 30.9539 15.552C30.7299 15.392 30.4379 15.312 30.0779 15.312Z" fill="#A5A5A5"/>
<path d="M36.8154 14.46C37.5994 14.46 38.1794 14.632 38.5554 14.976C38.9314 15.32 39.1194 15.868 39.1194 16.62V21H38.3514L38.1474 20.088H38.0994C37.9154 20.32 37.7234 20.516 37.5234 20.676C37.3314 20.828 37.1074 20.94 36.8514 21.012C36.6034 21.084 36.2994 21.12 35.9394 21.12C35.5554 21.12 35.2074 21.052 34.8954 20.916C34.5914 20.78 34.3514 20.572 34.1754 20.292C33.9994 20.004 33.9114 19.644 33.9114 19.212C33.9114 18.572 34.1634 18.08 34.6674 17.736C35.1714 17.384 35.9474 17.192 36.9954 17.16L38.0874 17.124V16.74C38.0874 16.204 37.9714 15.832 37.7394 15.624C37.5074 15.416 37.1794 15.312 36.7554 15.312C36.4194 15.312 36.0994 15.364 35.7954 15.468C35.4914 15.564 35.2074 15.676 34.9434 15.804L34.6194 15.012C34.8994 14.86 35.2314 14.732 35.6154 14.628C35.9994 14.516 36.3994 14.46 36.8154 14.46ZM37.1274 17.892C36.3274 17.924 35.7714 18.052 35.4594 18.276C35.1554 18.5 35.0034 18.816 35.0034 19.224C35.0034 19.584 35.1114 19.848 35.3274 20.016C35.5514 20.184 35.8354 20.268 36.1794 20.268C36.7234 20.268 37.1754 20.12 37.5354 19.824C37.8954 19.52 38.0754 19.056 38.0754 18.432V17.856L37.1274 17.892Z" fill="#A5A5A5"/>
<path d="M44.1059 14.448C44.2259 14.448 44.3539 14.456 44.4899 14.472C44.6339 14.48 44.7579 14.496 44.8619 14.52L44.7299 15.492C44.6259 15.468 44.5099 15.448 44.3819 15.432C44.2619 15.416 44.1459 15.408 44.0339 15.408C43.7859 15.408 43.5499 15.46 43.3259 15.564C43.1019 15.668 42.9019 15.816 42.7259 16.008C42.5499 16.192 42.4099 16.416 42.3059 16.68C42.2099 16.944 42.1619 17.24 42.1619 17.568V21H41.1059V14.568H41.9699L42.0899 15.744H42.1379C42.2739 15.504 42.4379 15.288 42.6299 15.096C42.8219 14.896 43.0419 14.74 43.2899 14.628C43.5379 14.508 43.8099 14.448 44.1059 14.448Z" fill="#A5A5A5"/>
<path d="M48.4086 21.12C47.8406 21.12 47.3326 21.004 46.8846 20.772C46.4446 20.54 46.0966 20.18 45.8406 19.692C45.5926 19.204 45.4686 18.58 45.4686 17.82C45.4686 17.028 45.6006 16.384 45.8646 15.888C46.1286 15.392 46.4846 15.028 46.9326 14.796C47.3886 14.564 47.9046 14.448 48.4806 14.448C48.8086 14.448 49.1246 14.484 49.4286 14.556C49.7326 14.62 49.9806 14.7 50.1726 14.796L49.8486 15.672C49.6566 15.6 49.4326 15.532 49.1766 15.468C48.9206 15.404 48.6806 15.372 48.4566 15.372C48.0246 15.372 47.6686 15.464 47.3886 15.648C47.1086 15.832 46.9006 16.104 46.7646 16.464C46.6286 16.824 46.5606 17.272 46.5606 17.808C46.5606 18.32 46.6286 18.756 46.7646 19.116C46.9006 19.476 47.1046 19.748 47.3766 19.932C47.6486 20.116 47.9886 20.208 48.3966 20.208C48.7486 20.208 49.0566 20.172 49.3206 20.1C49.5926 20.028 49.8406 19.94 50.0646 19.836V20.772C49.8486 20.884 49.6086 20.968 49.3446 21.024C49.0886 21.088 48.7766 21.12 48.4086 21.12Z" fill="#A5A5A5"/>
<path d="M52.6502 14.556C52.6502 14.708 52.6422 14.864 52.6262 15.024C52.6182 15.184 52.6062 15.328 52.5902 15.456H52.6622C52.7982 15.232 52.9702 15.048 53.1782 14.904C53.3862 14.76 53.6182 14.652 53.8742 14.58C54.1302 14.5 54.3942 14.46 54.6662 14.46C55.1862 14.46 55.6182 14.544 55.9622 14.712C56.3142 14.872 56.5782 15.124 56.7542 15.468C56.9302 15.812 57.0182 16.26 57.0182 16.812V21H55.9742V16.884C55.9742 16.364 55.8582 15.976 55.6262 15.72C55.3942 15.464 55.0302 15.336 54.5342 15.336C54.0542 15.336 53.6782 15.428 53.4062 15.612C53.1342 15.788 52.9382 16.052 52.8182 16.404C52.7062 16.748 52.6502 17.172 52.6502 17.676V21H51.5942V11.88H52.6502V14.556Z" fill="#A5A5A5"/>
<path d="M64.2774 20.256C64.4374 20.256 64.6014 20.244 64.7694 20.22C64.9374 20.188 65.0734 20.156 65.1774 20.124V20.928C65.0654 20.984 64.9054 21.028 64.6974 21.06C64.4894 21.1 64.2894 21.12 64.0974 21.12C63.7614 21.12 63.4494 21.064 63.1614 20.952C62.8814 20.832 62.6534 20.628 62.4774 20.34C62.3014 20.052 62.2134 19.648 62.2134 19.128V15.384H61.3014V14.88L62.2254 14.46L62.6454 13.092H63.2694V14.568H65.1294V15.384H63.2694V19.104C63.2694 19.496 63.3614 19.788 63.5454 19.98C63.7374 20.164 63.9814 20.256 64.2774 20.256Z" fill="#A5A5A5"/>
<path d="M67.5213 14.556C67.5213 14.708 67.5133 14.864 67.4973 15.024C67.4893 15.184 67.4773 15.328 67.4613 15.456H67.5333C67.6693 15.232 67.8413 15.048 68.0493 14.904C68.2573 14.76 68.4893 14.652 68.7453 14.58C69.0013 14.5 69.2653 14.46 69.5373 14.46C70.0573 14.46 70.4893 14.544 70.8333 14.712C71.1853 14.872 71.4493 15.124 71.6253 15.468C71.8013 15.812 71.8893 16.26 71.8893 16.812V21H70.8453V16.884C70.8453 16.364 70.7293 15.976 70.4973 15.72C70.2653 15.464 69.9013 15.336 69.4053 15.336C68.9253 15.336 68.5493 15.428 68.2773 15.612C68.0053 15.788 67.8093 16.052 67.6893 16.404C67.5773 16.748 67.5213 17.172 67.5213 17.676V21H66.4653V11.88H67.5213V14.556Z" fill="#A5A5A5"/>
<path d="M76.3673 14.448C76.9193 14.448 77.3913 14.568 77.7833 14.808C78.1833 15.048 78.4873 15.388 78.6953 15.828C78.9113 16.26 79.0193 16.768 79.0193 17.352V17.988H74.6153C74.6313 18.716 74.8153 19.272 75.1673 19.656C75.5273 20.032 76.0273 20.22 76.6673 20.22C77.0753 20.22 77.4353 20.184 77.7473 20.112C78.0673 20.032 78.3953 19.92 78.7313 19.776V20.7C78.4033 20.844 78.0793 20.948 77.7593 21.012C77.4393 21.084 77.0593 21.12 76.6193 21.12C76.0113 21.12 75.4713 20.996 74.9993 20.748C74.5353 20.5 74.1713 20.132 73.9073 19.644C73.6513 19.148 73.5233 18.544 73.5233 17.832C73.5233 17.128 73.6393 16.524 73.8713 16.02C74.1113 15.516 74.4433 15.128 74.8673 14.856C75.2993 14.584 75.7993 14.448 76.3673 14.448ZM76.3553 15.312C75.8513 15.312 75.4513 15.476 75.1553 15.804C74.8673 16.124 74.6953 16.572 74.6393 17.148H77.9153C77.9153 16.78 77.8593 16.46 77.7473 16.188C77.6353 15.916 77.4633 15.704 77.2313 15.552C77.0073 15.392 76.7153 15.312 76.3553 15.312Z" fill="#A5A5A5"/>
<path d="M83.0179 23.88C82.8179 23.88 82.6419 23.864 82.4899 23.832C82.3379 23.808 82.2059 23.776 82.0939 23.736V22.884C82.2139 22.916 82.3379 22.944 82.4659 22.968C82.5939 22.992 82.7339 23.004 82.8859 23.004C83.1419 23.004 83.3539 22.932 83.5219 22.788C83.6899 22.652 83.7739 22.388 83.7739 21.996V14.568H84.8299V21.96C84.8299 22.36 84.7659 22.704 84.6379 22.992C84.5099 23.28 84.3139 23.5 84.0499 23.652C83.7859 23.804 83.4419 23.88 83.0179 23.88ZM83.6899 12.828C83.6899 12.596 83.7499 12.428 83.8699 12.324C83.9899 12.212 84.1379 12.156 84.3139 12.156C84.4739 12.156 84.6139 12.212 84.7339 12.324C84.8619 12.428 84.9259 12.596 84.9259 12.828C84.9259 13.052 84.8619 13.22 84.7339 13.332C84.6139 13.444 84.4739 13.5 84.3139 13.5C84.1379 13.5 83.9899 13.444 83.8699 13.332C83.7499 13.22 83.6899 13.052 83.6899 12.828Z" fill="#A5A5A5"/>
<path d="M92.4597 17.772C92.4597 18.308 92.3877 18.784 92.2437 19.2C92.1077 19.608 91.9077 19.956 91.6437 20.244C91.3877 20.532 91.0717 20.752 90.6957 20.904C90.3277 21.048 89.9157 21.12 89.4597 21.12C89.0357 21.12 88.6437 21.048 88.2837 20.904C87.9237 20.752 87.6117 20.532 87.3477 20.244C87.0837 19.956 86.8757 19.608 86.7237 19.2C86.5797 18.784 86.5077 18.308 86.5077 17.772C86.5077 17.06 86.6277 16.46 86.8677 15.972C87.1077 15.476 87.4517 15.1 87.8997 14.844C88.3477 14.58 88.8797 14.448 89.4957 14.448C90.0797 14.448 90.5917 14.58 91.0317 14.844C91.4797 15.1 91.8277 15.476 92.0757 15.972C92.3316 16.46 92.4597 17.06 92.4597 17.772ZM87.5997 17.772C87.5997 18.276 87.6637 18.716 87.7917 19.092C87.9277 19.46 88.1357 19.744 88.4157 19.944C88.6957 20.144 89.0517 20.244 89.4837 20.244C89.9157 20.244 90.2717 20.144 90.5517 19.944C90.8317 19.744 91.0357 19.46 91.1637 19.092C91.2997 18.716 91.3677 18.276 91.3677 17.772C91.3677 17.26 91.2997 16.824 91.1637 16.464C91.0277 16.104 90.8197 15.828 90.5397 15.636C90.2677 15.436 89.9117 15.336 89.4717 15.336C88.8157 15.336 88.3397 15.552 88.0437 15.984C87.7477 16.416 87.5997 17.012 87.5997 17.772Z" fill="#A5A5A5"/>
<path d="M95.1893 14.1C95.1893 14.372 95.1813 14.628 95.1653 14.868C95.1573 15.1 95.1453 15.284 95.1293 15.42H95.1893C95.3733 15.148 95.6253 14.92 95.9453 14.736C96.2653 14.552 96.6773 14.46 97.1813 14.46C97.9813 14.46 98.6213 14.74 99.1013 15.3C99.5893 15.852 99.8333 16.68 99.8333 17.784C99.8333 18.52 99.7213 19.136 99.4973 19.632C99.2813 20.128 98.9733 20.5 98.5733 20.748C98.1733 20.996 97.7093 21.12 97.1813 21.12C96.6773 21.12 96.2653 21.028 95.9453 20.844C95.6253 20.66 95.3733 20.44 95.1893 20.184H95.1053L94.8893 21H94.1333V11.88H95.1893V14.1ZM97.0013 15.336C96.5453 15.336 96.1853 15.424 95.9213 15.6C95.6573 15.768 95.4693 16.032 95.3573 16.392C95.2453 16.744 95.1893 17.196 95.1893 17.748V17.796C95.1893 18.588 95.3173 19.196 95.5733 19.62C95.8373 20.036 96.3213 20.244 97.0253 20.244C97.6013 20.244 98.0293 20.032 98.3093 19.608C98.5973 19.184 98.7413 18.572 98.7413 17.772C98.7413 16.964 98.5973 16.356 98.3093 15.948C98.0293 15.54 97.5933 15.336 97.0013 15.336Z" fill="#A5A5A5"/>
<path d="M103.625 14.568H104.753L106.145 18.228C106.225 18.444 106.297 18.652 106.361 18.852C106.433 19.052 106.497 19.248 106.553 19.44C106.609 19.624 106.653 19.804 106.685 19.98H106.733C106.781 19.78 106.857 19.52 106.961 19.2C107.065 18.872 107.173 18.544 107.285 18.216L108.593 14.568H109.733L106.961 21.888C106.809 22.288 106.629 22.636 106.421 22.932C106.221 23.236 105.973 23.468 105.677 23.628C105.389 23.796 105.037 23.88 104.621 23.88C104.429 23.88 104.261 23.868 104.117 23.844C103.973 23.828 103.849 23.808 103.745 23.784V22.944C103.833 22.96 103.937 22.976 104.057 22.992C104.185 23.008 104.317 23.016 104.453 23.016C104.701 23.016 104.913 22.968 105.089 22.872C105.273 22.784 105.429 22.652 105.557 22.476C105.685 22.308 105.793 22.108 105.881 21.876L106.217 21.024L103.625 14.568Z" fill="#A5A5A5"/>
<path d="M116.342 17.772C116.342 18.308 116.27 18.784 116.126 19.2C115.99 19.608 115.79 19.956 115.526 20.244C115.27 20.532 114.954 20.752 114.578 20.904C114.21 21.048 113.798 21.12 113.342 21.12C112.918 21.12 112.526 21.048 112.166 20.904C111.806 20.752 111.494 20.532 111.23 20.244C110.966 19.956 110.758 19.608 110.606 19.2C110.462 18.784 110.39 18.308 110.39 17.772C110.39 17.06 110.51 16.46 110.75 15.972C110.99 15.476 111.334 15.1 111.782 14.844C112.23 14.58 112.762 14.448 113.378 14.448C113.962 14.448 114.474 14.58 114.914 14.844C115.362 15.1 115.71 15.476 115.958 15.972C116.214 16.46 116.342 17.06 116.342 17.772ZM111.482 17.772C111.482 18.276 111.546 18.716 111.674 19.092C111.81 19.46 112.018 19.744 112.298 19.944C112.578 20.144 112.934 20.244 113.366 20.244C113.798 20.244 114.154 20.144 114.434 19.944C114.714 19.744 114.918 19.46 115.046 19.092C115.182 18.716 115.25 18.276 115.25 17.772C115.25 17.26 115.182 16.824 115.046 16.464C114.91 16.104 114.702 15.828 114.422 15.636C114.15 15.436 113.794 15.336 113.354 15.336C112.698 15.336 112.222 15.552 111.926 15.984C111.63 16.416 111.482 17.012 111.482 17.772Z" fill="#A5A5A5"/>
<path d="M123.392 14.568V21H122.528L122.372 20.148H122.324C122.188 20.372 122.012 20.556 121.796 20.7C121.58 20.844 121.344 20.948 121.088 21.012C120.832 21.084 120.564 21.12 120.284 21.12C119.772 21.12 119.34 21.04 118.988 20.88C118.644 20.712 118.384 20.456 118.208 20.112C118.032 19.768 117.944 19.324 117.944 18.78V14.568H119.012V18.708C119.012 19.22 119.128 19.604 119.36 19.86C119.592 20.116 119.952 20.244 120.44 20.244C120.92 20.244 121.296 20.156 121.568 19.98C121.848 19.796 122.044 19.532 122.156 19.188C122.276 18.836 122.336 18.412 122.336 17.916V14.568H123.392Z" fill="#A5A5A5"/>
<path d="M129.607 21H128.551V11.88H129.607V21Z" fill="#A5A5A5"/>
<path d="M137.237 17.772C137.237 18.308 137.165 18.784 137.021 19.2C136.885 19.608 136.685 19.956 136.421 20.244C136.165 20.532 135.849 20.752 135.473 20.904C135.105 21.048 134.693 21.12 134.237 21.12C133.813 21.12 133.421 21.048 133.061 20.904C132.701 20.752 132.389 20.532 132.125 20.244C131.861 19.956 131.653 19.608 131.501 19.2C131.357 18.784 131.285 18.308 131.285 17.772C131.285 17.06 131.405 16.46 131.645 15.972C131.885 15.476 132.229 15.1 132.677 14.844C133.125 14.58 133.657 14.448 134.273 14.448C134.857 14.448 135.369 14.58 135.809 14.844C136.257 15.1 136.605 15.476 136.853 15.972C137.109 16.46 137.237 17.06 137.237 17.772ZM132.377 17.772C132.377 18.276 132.441 18.716 132.569 19.092C132.705 19.46 132.913 19.744 133.193 19.944C133.473 20.144 133.829 20.244 134.261 20.244C134.693 20.244 135.049 20.144 135.329 19.944C135.609 19.744 135.813 19.46 135.941 19.092C136.077 18.716 136.145 18.276 136.145 17.772C136.145 17.26 136.077 16.824 135.941 16.464C135.805 16.104 135.597 15.828 135.317 15.636C135.045 15.436 134.689 15.336 134.249 15.336C133.593 15.336 133.117 15.552 132.821 15.984C132.525 16.416 132.377 17.012 132.377 17.772Z" fill="#A5A5A5"/>
<path d="M144.503 17.772C144.503 18.308 144.431 18.784 144.287 19.2C144.151 19.608 143.951 19.956 143.687 20.244C143.431 20.532 143.115 20.752 142.739 20.904C142.371 21.048 141.959 21.12 141.503 21.12C141.079 21.12 140.687 21.048 140.327 20.904C139.967 20.752 139.655 20.532 139.391 20.244C139.127 19.956 138.919 19.608 138.767 19.2C138.623 18.784 138.551 18.308 138.551 17.772C138.551 17.06 138.671 16.46 138.911 15.972C139.151 15.476 139.495 15.1 139.943 14.844C140.391 14.58 140.923 14.448 141.539 14.448C142.123 14.448 142.635 14.58 143.075 14.844C143.523 15.1 143.871 15.476 144.119 15.972C144.375 16.46 144.503 17.06 144.503 17.772ZM139.643 17.772C139.643 18.276 139.707 18.716 139.835 19.092C139.971 19.46 140.179 19.744 140.459 19.944C140.739 20.144 141.095 20.244 141.527 20.244C141.959 20.244 142.315 20.144 142.595 19.944C142.875 19.744 143.079 19.46 143.207 19.092C143.343 18.716 143.411 18.276 143.411 17.772C143.411 17.26 143.343 16.824 143.207 16.464C143.071 16.104 142.863 15.828 142.583 15.636C142.311 15.436 141.955 15.336 141.515 15.336C140.859 15.336 140.383 15.552 140.087 15.984C139.791 16.416 139.643 17.012 139.643 17.772Z" fill="#A5A5A5"/>
<path d="M147.22 16.644C147.22 16.772 147.212 16.94 147.196 17.148C147.188 17.356 147.18 17.536 147.172 17.688H147.22C147.268 17.624 147.34 17.532 147.436 17.412C147.532 17.292 147.628 17.172 147.724 17.052C147.828 16.924 147.916 16.82 147.988 16.74L150.04 14.568H151.276L148.672 17.316L151.456 21H150.184L147.952 18L147.22 18.636V21H146.176V11.88H147.22V16.644Z" fill="#A5A5A5"/>
<path d="M153.642 14.568V21H152.586V14.568H153.642ZM153.126 12.156C153.286 12.156 153.426 12.212 153.546 12.324C153.674 12.428 153.738 12.596 153.738 12.828C153.738 13.052 153.674 13.22 153.546 13.332C153.426 13.444 153.286 13.5 153.126 13.5C152.95 13.5 152.802 13.444 152.682 13.332C152.562 13.22 152.502 13.052 152.502 12.828C152.502 12.596 152.562 12.428 152.682 12.324C152.802 12.212 152.95 12.156 153.126 12.156Z" fill="#A5A5A5"/>
<path d="M158.776 14.448C159.544 14.448 160.124 14.636 160.516 15.012C160.908 15.38 161.104 15.98 161.104 16.812V21H160.06V16.884C160.06 16.364 159.944 15.976 159.712 15.72C159.48 15.464 159.116 15.336 158.62 15.336C157.908 15.336 157.416 15.536 157.144 15.936C156.872 16.336 156.736 16.912 156.736 17.664V21H155.68V14.568H156.532L156.688 15.444H156.748C156.892 15.22 157.068 15.036 157.276 14.892C157.492 14.74 157.728 14.628 157.984 14.556C158.24 14.484 158.504 14.448 158.776 14.448Z" fill="#A5A5A5"/>
<path d="M165.378 14.448C165.802 14.448 166.182 14.528 166.518 14.688C166.862 14.848 167.154 15.092 167.394 15.42H167.454L167.598 14.568H168.438V21.108C168.438 21.716 168.334 22.224 168.126 22.632C167.918 23.048 167.602 23.36 167.178 23.568C166.754 23.776 166.214 23.88 165.558 23.88C165.094 23.88 164.666 23.844 164.274 23.772C163.89 23.708 163.546 23.608 163.242 23.472V22.5C163.45 22.604 163.678 22.692 163.926 22.764C164.174 22.844 164.442 22.904 164.73 22.944C165.018 22.984 165.314 23.004 165.618 23.004C166.17 23.004 166.602 22.84 166.914 22.512C167.234 22.192 167.394 21.752 167.394 21.192V20.94C167.394 20.844 167.398 20.708 167.406 20.532C167.414 20.348 167.422 20.22 167.43 20.148H167.382C167.158 20.476 166.878 20.72 166.542 20.88C166.214 21.04 165.83 21.12 165.39 21.12C164.558 21.12 163.906 20.828 163.434 20.244C162.97 19.66 162.738 18.844 162.738 17.796C162.738 17.108 162.842 16.516 163.05 16.02C163.266 15.516 163.57 15.128 163.962 14.856C164.354 14.584 164.826 14.448 165.378 14.448ZM165.522 15.336C165.162 15.336 164.854 15.432 164.598 15.624C164.35 15.816 164.158 16.096 164.022 16.464C163.894 16.832 163.83 17.28 163.83 17.808C163.83 18.6 163.974 19.208 164.262 19.632C164.558 20.048 164.986 20.256 165.546 20.256C165.874 20.256 166.154 20.216 166.386 20.136C166.618 20.048 166.81 19.916 166.962 19.74C167.114 19.556 167.226 19.324 167.298 19.044C167.37 18.764 167.406 18.432 167.406 18.048V17.796C167.406 17.212 167.338 16.74 167.202 16.38C167.074 16.02 166.87 15.756 166.59 15.588C166.31 15.42 165.954 15.336 165.522 15.336Z" fill="#A5A5A5"/>
<path d="M176.562 15.384H174.942V21H173.886V15.384H172.758V14.892L173.886 14.532V14.16C173.886 13.608 173.966 13.16 174.126 12.816C174.294 12.472 174.534 12.22 174.846 12.06C175.158 11.9 175.534 11.82 175.974 11.82C176.23 11.82 176.462 11.844 176.67 11.892C176.886 11.932 177.07 11.98 177.222 12.036L176.946 12.864C176.818 12.824 176.67 12.784 176.502 12.744C176.334 12.704 176.162 12.684 175.986 12.684C175.634 12.684 175.37 12.804 175.194 13.044C175.026 13.276 174.942 13.644 174.942 14.148V14.568H176.562V15.384Z" fill="#A5A5A5"/>
<path d="M183.315 17.772C183.315 18.308 183.243 18.784 183.099 19.2C182.963 19.608 182.763 19.956 182.499 20.244C182.243 20.532 181.927 20.752 181.551 20.904C181.183 21.048 180.771 21.12 180.315 21.12C179.891 21.12 179.499 21.048 179.139 20.904C178.779 20.752 178.467 20.532 178.203 20.244C177.939 19.956 177.731 19.608 177.579 19.2C177.435 18.784 177.363 18.308 177.363 17.772C177.363 17.06 177.483 16.46 177.723 15.972C177.963 15.476 178.307 15.1 178.755 14.844C179.203 14.58 179.735 14.448 180.351 14.448C180.935 14.448 181.447 14.58 181.887 14.844C182.335 15.1 182.683 15.476 182.931 15.972C183.187 16.46 183.315 17.06 183.315 17.772ZM178.455 17.772C178.455 18.276 178.519 18.716 178.647 19.092C178.783 19.46 178.991 19.744 179.271 19.944C179.551 20.144 179.907 20.244 180.339 20.244C180.771 20.244 181.127 20.144 181.407 19.944C181.687 19.744 181.891 19.46 182.019 19.092C182.155 18.716 182.223 18.276 182.223 17.772C182.223 17.26 182.155 16.824 182.019 16.464C181.883 16.104 181.675 15.828 181.395 15.636C181.123 15.436 180.767 15.336 180.327 15.336C179.671 15.336 179.195 15.552 178.899 15.984C178.603 16.416 178.455 17.012 178.455 17.772Z" fill="#A5A5A5"/>
<path d="M187.989 14.448C188.109 14.448 188.237 14.456 188.373 14.472C188.517 14.48 188.641 14.496 188.745 14.52L188.613 15.492C188.509 15.468 188.393 15.448 188.265 15.432C188.145 15.416 188.029 15.408 187.917 15.408C187.669 15.408 187.433 15.46 187.209 15.564C186.985 15.668 186.785 15.816 186.609 16.008C186.433 16.192 186.293 16.416 186.189 16.68C186.093 16.944 186.045 17.24 186.045 17.568V21H184.989V14.568H185.853L185.973 15.744H186.021C186.157 15.504 186.321 15.288 186.513 15.096C186.705 14.896 186.925 14.74 187.173 14.628C187.421 14.508 187.693 14.448 187.989 14.448Z" fill="#A5A5A5"/>
</svg>
