<svg width="116" height="43" viewBox="0 0 116 43" fill="none" xmlns="http://www.w3.org/2000/svg">
<g filter="url(#filter0_d_149_6202)">
<g filter="url(#filter1_d_149_6202)">
<rect x="4" width="108" height="35" rx="17.5" fill="white"/>
<rect x="4.5" y="0.5" width="107" height="34" rx="17" stroke="#DBDBDB"/>
</g>
<path d="M50.2928 20.075C50.2928 20.705 50.1478 21.25 49.8578 21.71C49.5778 22.17 49.1578 22.525 48.5978 22.775C48.0478 23.025 47.3678 23.15 46.5578 23.15C46.1578 23.15 45.7878 23.125 45.4478 23.075C45.1078 23.035 44.7878 22.97 44.4878 22.88C44.1978 22.79 43.9178 22.68 43.6478 22.55V20.75C44.0978 20.95 44.5828 21.135 45.1028 21.305C45.6328 21.465 46.1478 21.545 46.6478 21.545C47.0278 21.545 47.3378 21.49 47.5778 21.38C47.8178 21.26 47.9928 21.1 48.1028 20.9C48.2228 20.69 48.2828 20.45 48.2828 20.18C48.2828 19.88 48.2078 19.625 48.0578 19.415C47.9178 19.205 47.6978 19.01 47.3978 18.83C47.0978 18.65 46.7078 18.465 46.2278 18.275C45.8878 18.125 45.5628 17.965 45.2528 17.795C44.9528 17.615 44.6878 17.4 44.4578 17.15C44.2378 16.9 44.0628 16.605 43.9328 16.265C43.8128 15.925 43.7528 15.525 43.7528 15.065C43.7528 14.455 43.8978 13.93 44.1878 13.49C44.4778 13.05 44.8828 12.715 45.4028 12.485C45.9228 12.255 46.5278 12.14 47.2178 12.14C47.7978 12.14 48.3278 12.2 48.8078 12.32C49.2978 12.44 49.7578 12.61 50.1878 12.83L49.5578 14.375C49.1478 14.185 48.7428 14.035 48.3428 13.925C47.9528 13.815 47.5578 13.76 47.1578 13.76C46.8478 13.76 46.5878 13.815 46.3778 13.925C46.1678 14.025 46.0078 14.17 45.8978 14.36C45.7978 14.55 45.7478 14.77 45.7478 15.02C45.7478 15.31 45.8178 15.555 45.9578 15.755C46.0978 15.955 46.3178 16.145 46.6178 16.325C46.9178 16.495 47.3078 16.695 47.7878 16.925C48.3178 17.165 48.7678 17.42 49.1378 17.69C49.5178 17.96 49.8028 18.285 49.9928 18.665C50.1928 19.045 50.2928 19.515 50.2928 20.075Z" fill="#797979"/>
<path d="M55.129 14.72C55.829 14.72 56.429 14.87 56.929 15.17C57.439 15.46 57.834 15.88 58.114 16.43C58.394 16.97 58.534 17.63 58.534 18.41V19.37H53.554C53.574 20.11 53.754 20.685 54.094 21.095C54.444 21.495 54.934 21.695 55.564 21.695C56.064 21.695 56.509 21.645 56.899 21.545C57.289 21.435 57.694 21.28 58.114 21.08V22.595C57.734 22.785 57.339 22.925 56.929 23.015C56.519 23.105 56.014 23.15 55.414 23.15C54.654 23.15 53.979 23 53.389 22.7C52.809 22.39 52.354 21.925 52.024 21.305C51.694 20.685 51.529 19.915 51.529 18.995C51.529 18.065 51.679 17.285 51.979 16.655C52.279 16.015 52.699 15.535 53.239 15.215C53.789 14.885 54.419 14.72 55.129 14.72ZM55.159 16.115C54.709 16.115 54.344 16.28 54.064 16.61C53.794 16.93 53.634 17.41 53.584 18.05H56.644C56.644 17.67 56.589 17.335 56.479 17.045C56.369 16.755 56.204 16.53 55.984 16.37C55.774 16.2 55.499 16.115 55.159 16.115Z" fill="#797979"/>
<path d="M64.3947 14.72C64.5347 14.72 64.6797 14.725 64.8297 14.735C64.9797 14.745 65.1047 14.765 65.2047 14.795L65.0247 16.55C64.9247 16.53 64.8047 16.515 64.6647 16.505C64.5347 16.485 64.3947 16.475 64.2447 16.475C63.9947 16.475 63.7497 16.525 63.5097 16.625C63.2697 16.715 63.0547 16.855 62.8647 17.045C62.6747 17.225 62.5197 17.46 62.3997 17.75C62.2897 18.04 62.2347 18.385 62.2347 18.785V23H60.2397V14.87H61.7697L62.0397 16.28H62.1447C62.2947 15.99 62.4797 15.73 62.6997 15.5C62.9297 15.26 63.1847 15.07 63.4647 14.93C63.7547 14.79 64.0647 14.72 64.3947 14.72Z" fill="#797979"/>
<path d="M68.3542 23L65.4292 14.87H67.5142L68.9692 19.565C69.0392 19.755 69.0942 19.965 69.1342 20.195C69.1842 20.415 69.2292 20.635 69.2692 20.855C69.3092 21.065 69.3292 21.25 69.3292 21.41H69.3892C69.4092 21.24 69.4342 21.05 69.4642 20.84C69.5042 20.62 69.5542 20.4 69.6142 20.18C69.6742 19.96 69.7292 19.755 69.7792 19.565L71.2492 14.87H73.3342L70.4092 23H68.3542Z" fill="#797979"/>
<path d="M76.4144 14.87V23H74.4344V14.87H76.4144ZM75.4394 11.735C75.7294 11.735 75.9794 11.81 76.1894 11.96C76.3994 12.1 76.5044 12.355 76.5044 12.725C76.5044 13.085 76.3994 13.345 76.1894 13.505C75.9794 13.655 75.7294 13.73 75.4394 13.73C75.1294 13.73 74.8694 13.655 74.6594 13.505C74.4494 13.345 74.3444 13.085 74.3444 12.725C74.3444 12.355 74.4494 12.1 74.6594 11.96C74.8694 11.81 75.1294 11.735 75.4394 11.735Z" fill="#797979"/>
<path d="M81.8195 23.15C81.0695 23.15 80.4195 23.005 79.8695 22.715C79.3295 22.415 78.9095 21.96 78.6095 21.35C78.3195 20.73 78.1745 19.94 78.1745 18.98C78.1745 17.98 78.3345 17.17 78.6545 16.55C78.9845 15.92 79.4345 15.46 80.0045 15.17C80.5845 14.87 81.2395 14.72 81.9695 14.72C82.4295 14.72 82.8595 14.77 83.2595 14.87C83.6695 14.97 84.0095 15.09 84.2795 15.23L83.6795 16.685C83.4095 16.575 83.1395 16.48 82.8695 16.4C82.5995 16.32 82.3295 16.28 82.0595 16.28C81.6495 16.28 81.3095 16.38 81.0395 16.58C80.7695 16.78 80.5595 17.08 80.4095 17.48C80.2695 17.87 80.1995 18.365 80.1995 18.965C80.1995 19.545 80.2695 20.03 80.4095 20.42C80.5595 20.81 80.7695 21.105 81.0395 21.305C81.3095 21.495 81.6395 21.59 82.0295 21.59C82.4195 21.59 82.7795 21.535 83.1095 21.425C83.4495 21.315 83.7695 21.165 84.0695 20.975V22.61C83.7595 22.8 83.4295 22.935 83.0795 23.015C82.7295 23.105 82.3095 23.15 81.8195 23.15Z" fill="#797979"/>
<path d="M88.9815 14.72C89.6815 14.72 90.2815 14.87 90.7815 15.17C91.2915 15.46 91.6865 15.88 91.9665 16.43C92.2465 16.97 92.3865 17.63 92.3865 18.41V19.37H87.4065C87.4265 20.11 87.6065 20.685 87.9465 21.095C88.2965 21.495 88.7865 21.695 89.4165 21.695C89.9165 21.695 90.3615 21.645 90.7515 21.545C91.1415 21.435 91.5465 21.28 91.9665 21.08V22.595C91.5865 22.785 91.1915 22.925 90.7815 23.015C90.3715 23.105 89.8665 23.15 89.2665 23.15C88.5065 23.15 87.8315 23 87.2415 22.7C86.6615 22.39 86.2065 21.925 85.8765 21.305C85.5465 20.685 85.3815 19.915 85.3815 18.995C85.3815 18.065 85.5315 17.285 85.8315 16.655C86.1315 16.015 86.5515 15.535 87.0915 15.215C87.6415 14.885 88.2715 14.72 88.9815 14.72ZM89.0115 16.115C88.5615 16.115 88.1965 16.28 87.9165 16.61C87.6465 16.93 87.4865 17.41 87.4365 18.05H90.4965C90.4965 17.67 90.4415 17.335 90.3315 17.045C90.2215 16.755 90.0565 16.53 89.8365 16.37C89.6265 16.2 89.3515 16.115 89.0115 16.115Z" fill="#797979"/>
<path d="M19.4 15.2569C19.4 13.5975 19.99 12.006 21.0402 10.8326C22.0904 9.65921 23.5148 9 25 9C26.4852 9 27.9096 9.65921 28.9598 10.8326C30.01 12.006 30.6 13.5975 30.6 15.2569V16.182C31.9568 16.3992 33 17.7033 33 19.2792V19.5026C33 21.0892 31.7752 22.48 30.3344 22.4058C29.7424 24.3008 28.2368 25.5781 26.612 25.9016C26.236 26.0554 25.7912 25.983 25.4 25.983C25.0817 25.983 24.7765 25.8417 24.5515 25.5903C24.3264 25.3388 24.2 24.9978 24.2 24.6422C24.2 24.2866 24.3264 23.9456 24.5515 23.6941C24.7765 23.4427 25.0817 23.3014 25.4 23.3014C26.0344 23.3014 26.7368 23.1987 27.1656 23.8458C28.2024 23.2943 29 22.1296 29 20.6199V15.2569C29 14.0716 28.5786 12.9348 27.8284 12.0967C27.0783 11.2585 26.0609 10.7877 25 10.7877C23.9391 10.7877 22.9217 11.2585 22.1716 12.0967C21.4214 12.9348 21 14.0716 21 15.2569V20.8434C21 21.2582 20.8525 21.6561 20.5899 21.9495C20.3274 22.2428 19.9713 22.4076 19.6 22.4076C18.9104 22.4076 18.2491 22.1015 17.7615 21.5568C17.2739 21.012 17 20.2731 17 19.5026V19.2792C16.9998 18.5267 17.2424 17.7995 17.6832 17.2306C18.124 16.6618 18.7335 16.2895 19.4 16.182V15.2569Z" fill="#777777"/>
</g>
<defs>
<filter id="filter0_d_149_6202" x="0" y="0" width="116" height="43" filterUnits="userSpaceOnUse" color-interpolation-filters="sRGB">
<feFlood flood-opacity="0" result="BackgroundImageFix"/>
<feColorMatrix in="SourceAlpha" type="matrix" values="0 0 0 0 0 0 0 0 0 0 0 0 0 0 0 0 0 0 127 0" result="hardAlpha"/>
<feOffset dy="4"/>
<feGaussianBlur stdDeviation="2"/>
<feComposite in2="hardAlpha" operator="out"/>
<feColorMatrix type="matrix" values="0 0 0 0 0 0 0 0 0 0 0 0 0 0 0 0 0 0 0.25 0"/>
<feBlend mode="normal" in2="BackgroundImageFix" result="effect1_dropShadow_149_6202"/>
<feBlend mode="normal" in="SourceGraphic" in2="effect1_dropShadow_149_6202" result="shape"/>
</filter>
<filter id="filter1_d_149_6202" x="3" y="0" width="110" height="37" filterUnits="userSpaceOnUse" color-interpolation-filters="sRGB">
<feFlood flood-opacity="0" result="BackgroundImageFix"/>
<feColorMatrix in="SourceAlpha" type="matrix" values="0 0 0 0 0 0 0 0 0 0 0 0 0 0 0 0 0 0 127 0" result="hardAlpha"/>
<feOffset dy="1"/>
<feGaussianBlur stdDeviation="0.5"/>
<feComposite in2="hardAlpha" operator="out"/>
<feColorMatrix type="matrix" values="0 0 0 0 0 0 0 0 0 0 0 0 0 0 0 0 0 0 0.25 0"/>
<feBlend mode="normal" in2="BackgroundImageFix" result="effect1_dropShadow_149_6202"/>
<feBlend mode="normal" in="SourceGraphic" in2="effect1_dropShadow_149_6202" result="shape"/>
</filter>
</defs>
</svg>
